<svg width="154" height="55" viewBox="0 0 154 55" fill="none" xmlns="http://www.w3.org/2000/svg">
<path d="M50.9 26.8018V8.42041H57.9374C65.2374 8.42041 68.8874 12.0179 68.8874 17.4535V17.506C68.8874 22.9417 65.1586 26.8018 57.7273 26.8018H50.9ZM57.0446 21.4449H58.0687C60.8784 21.4449 62.6903 20.2895 62.6903 17.6373V17.5848C62.6903 14.9327 60.8784 13.7773 58.0687 13.7773H57.0446V21.4449ZM69.2294 26.8018L76.9758 8.28912H83.0679L90.8144 26.8018H84.1446L83.173 24.3334H76.7395L75.7942 26.8018H69.2294ZM78.2888 19.9744H81.65L79.9694 15.5104L78.2888 19.9744ZM91.6233 26.8018V8.42041H97.7679V26.8018H91.6233ZM99.9306 26.8018V8.42041H106.075V21.5499H114.714V26.8018H99.9306ZM118.371 26.8018V20.2895L111.439 8.42041H118.319L121.47 14.46L124.647 8.42041H131.448L124.516 20.2107V26.8018H118.371Z" fill="url(#paint0_linear_186_5091)"/>
<path d="M60.9815 48.9004C55.162 48.9004 50.4903 45.0029 50.4903 39.2101V39.1567C50.4903 33.5774 54.895 29.4129 60.7947 29.4129C63.9981 29.4129 66.5875 30.4807 68.6164 32.2426L65.1193 36.4604C63.8913 35.4193 62.5299 34.832 60.9815 34.832C58.5523 34.832 56.7904 36.7007 56.7904 39.2367V39.2901C56.7904 41.933 58.6323 43.7482 61.2485 43.7482C62.3163 43.7482 62.9036 43.5881 63.3841 43.3211V41.4525H60.1807V37.4482H69.2304V46.0974C67.2015 47.7525 64.3718 48.9004 60.9815 48.9004ZM71.0965 48.5V29.8133H77.3432V48.5H71.0965ZM85.7618 48.6335L78.1804 29.8133H85.1745L88.8051 40.3046L92.4356 29.8133H99.323L91.7415 48.6335H85.7618ZM100.085 48.5V29.8133H116.022V34.9388H106.225V36.8342H115.354V41.3457H106.225V43.3745H116.155V48.5H100.085ZM117.838 48.5V29.8133H126.968C130.278 29.8133 132.387 30.6409 133.695 31.9489C134.816 33.0701 135.404 34.4583 135.404 36.3804V36.4337C135.404 39.1567 133.989 41.052 131.72 42.1465L136.071 48.5H128.943L125.419 43.1609H125.366H124.085V48.5H117.838ZM124.085 38.7028H126.781C128.276 38.7028 129.184 38.0355 129.184 36.8876V36.8342C129.184 35.6329 128.249 35.0456 126.808 35.0456H124.085V38.7028ZM144.956 48.847C141.166 48.847 137.749 47.7792 135.373 45.697L138.71 41.7194C140.738 43.2677 143.061 43.9084 145.25 43.9084C146.371 43.9084 146.852 43.6148 146.852 43.1076V43.0542C146.852 42.5203 146.264 42.2266 144.262 41.8262C140.071 40.9719 136.387 39.7707 136.387 35.8198V35.7664C136.387 32.2159 139.163 29.4663 144.316 29.4663C147.919 29.4663 150.589 30.3205 152.751 32.029L149.708 36.2469C147.946 34.9655 145.837 34.4049 144.102 34.4049C143.168 34.4049 142.741 34.7252 142.741 35.1791V35.2325C142.741 35.7397 143.248 36.06 145.223 36.4337C150.002 37.3147 153.205 38.7028 153.205 42.4669V42.5203C153.205 46.4445 149.975 48.847 144.956 48.847Z" fill="url(#paint1_linear_186_5091)"/>
<path d="M0 10.3118C0 9.00374 1.06038 7.94336 2.36842 7.94336H20.3431C31.5783 7.94336 40.6862 17.0513 40.6862 28.2864V46.2611C40.6862 47.5691 39.6258 48.6295 38.3177 48.6295H20.3431C9.10789 48.6295 0 39.5216 0 28.2864V10.3118Z" fill="url(#paint2_linear_186_5091)"/>
<defs>
<linearGradient id="paint0_linear_186_5091" x1="131.051" y1="5.9843" x2="50.0407" y2="23.3238" gradientUnits="userSpaceOnUse">
<stop stop-color="#0FB30A"/>
<stop offset="1" stop-color="#AAE43F"/>
</linearGradient>
<linearGradient id="paint1_linear_186_5091" x1="153.607" y1="27.6825" x2="52.8855" y2="55.2295" gradientUnits="userSpaceOnUse">
<stop stop-color="#0FB30A"/>
<stop offset="1" stop-color="#AAE43F"/>
</linearGradient>
<linearGradient id="paint2_linear_186_5091" x1="40.6862" y1="48.6295" x2="30.246" y2="1.27506" gradientUnits="userSpaceOnUse">
<stop stop-color="#0FB30A"/>
<stop offset="1" stop-color="#AAE43F"/>
</linearGradient>
</defs>
</svg>
