<svg width="36" height="36" viewBox="0 0 36 36" fill="none" xmlns="http://www.w3.org/2000/svg">
<path d="M18.0098 0.272949C10.6075 0.272949 8.44256 0.280586 8.02174 0.315495C6.50265 0.441767 5.55738 0.680949 4.52756 1.19368C3.73392 1.58777 3.10801 2.04459 2.49029 2.68495C1.36529 3.85277 0.683468 5.28949 0.43665 6.99731C0.31665 7.8264 0.281741 7.9955 0.27465 12.2304C0.271922 13.642 0.27465 15.4999 0.27465 17.9918C0.27465 25.3881 0.282831 27.5509 0.318286 27.9709C0.441013 29.449 0.672831 30.379 1.16374 31.3963C2.10192 33.3436 3.89374 34.8054 6.00465 35.3509C6.73556 35.539 7.54283 35.6427 8.5792 35.6918C9.01829 35.7109 13.4937 35.7245 17.9719 35.7245C22.4501 35.7245 26.9283 35.719 27.3565 35.6972C28.5565 35.6408 29.2533 35.5472 30.0237 35.3481C32.1483 34.7999 33.9074 33.36 34.8647 31.3854C35.346 30.3927 35.5901 29.4272 35.7006 28.0262C35.7246 27.7208 35.7347 22.8507 35.7347 17.9871C35.7347 13.1228 35.7237 8.26168 35.6997 7.95622C35.5879 6.53259 35.3438 5.57531 34.8469 4.56349C34.4392 3.73522 33.9865 3.11668 33.3292 2.48422C32.1562 1.36386 30.7217 0.68204 29.0122 0.435495C28.1839 0.315767 28.0189 0.280313 23.7807 0.272949H18.0098Z" fill="url(#paint0_radial_8969_4885)"/>
<path d="M18.0098 0.272949C10.6075 0.272949 8.44256 0.280586 8.02174 0.315495C6.50265 0.441767 5.55738 0.680949 4.52756 1.19368C3.73392 1.58777 3.10801 2.04459 2.49029 2.68495C1.36529 3.85277 0.683468 5.28949 0.43665 6.99731C0.31665 7.8264 0.281741 7.9955 0.27465 12.2304C0.271922 13.642 0.27465 15.4999 0.27465 17.9918C0.27465 25.3881 0.282831 27.5509 0.318286 27.9709C0.441013 29.449 0.672831 30.379 1.16374 31.3963C2.10192 33.3436 3.89374 34.8054 6.00465 35.3509C6.73556 35.539 7.54283 35.6427 8.5792 35.6918C9.01829 35.7109 13.4937 35.7245 17.9719 35.7245C22.4501 35.7245 26.9283 35.719 27.3565 35.6972C28.5565 35.6408 29.2533 35.5472 30.0237 35.3481C32.1483 34.7999 33.9074 33.36 34.8647 31.3854C35.346 30.3927 35.5901 29.4272 35.7006 28.0262C35.7246 27.7208 35.7347 22.8507 35.7347 17.9871C35.7347 13.1228 35.7237 8.26168 35.6997 7.95622C35.5879 6.53259 35.3438 5.57531 34.8469 4.56349C34.4392 3.73522 33.9865 3.11668 33.3292 2.48422C32.1562 1.36386 30.7217 0.68204 29.0122 0.435495C28.1839 0.315767 28.0189 0.280313 23.7807 0.272949H18.0098Z" fill="url(#paint1_radial_8969_4885)"/>
<path d="M18.0002 4.90918C14.4449 4.90918 13.9987 4.92473 12.6024 4.98827C11.2087 5.05209 10.2575 5.27273 9.42511 5.59645C8.56411 5.93082 7.83375 6.37809 7.10611 7.106C6.37793 7.83363 5.93066 8.564 5.5952 9.42473C5.27066 10.2574 5.04975 11.2089 4.98702 12.602C4.92457 13.9984 4.9082 14.4448 4.9082 18.0001C4.9082 21.5554 4.92402 22.0002 4.98729 23.3965C5.05139 24.7902 5.27202 25.7415 5.59548 26.5738C5.93011 27.4348 6.37738 28.1652 7.10529 28.8928C7.83266 29.621 8.56302 30.0694 9.42348 30.4037C10.2564 30.7275 11.2079 30.9481 12.6013 31.0119C13.9977 31.0755 14.4436 31.091 17.9986 31.091C21.5541 31.091 21.9989 31.0755 23.3953 31.0119C24.7889 30.9481 25.7413 30.7275 26.5742 30.4037C27.4349 30.0694 28.1642 29.621 28.8916 28.8928C29.6198 28.1652 30.067 27.4348 30.4025 26.5741C30.7243 25.7415 30.9452 24.7899 31.0107 23.3968C31.0734 22.0005 31.0897 21.5554 31.0897 18.0001C31.0897 14.4448 31.0734 13.9986 31.0107 12.6023C30.9452 11.2086 30.7243 10.2574 30.4025 9.425C30.067 8.564 29.6198 7.83363 28.8916 7.106C28.1634 6.37782 27.4352 5.93054 26.5734 5.59645C25.7388 5.27273 24.787 5.05209 23.3934 4.98827C21.997 4.92473 21.5525 4.90918 17.9961 4.90918H18.0002ZM16.8258 7.26827C17.1744 7.26773 17.5633 7.26827 18.0002 7.26827C21.4955 7.26827 21.9097 7.28082 23.29 7.34354C24.5664 7.40191 25.2591 7.61518 25.7206 7.79436C26.3315 8.03163 26.767 8.31527 27.2249 8.77345C27.6831 9.23163 27.9667 9.668 28.2046 10.2789C28.3837 10.7398 28.5973 11.4325 28.6554 12.7089C28.7181 14.0889 28.7317 14.5035 28.7317 17.9971C28.7317 21.4907 28.7181 21.9053 28.6554 23.2853C28.597 24.5616 28.3837 25.2544 28.2046 25.7153C27.9673 26.3262 27.6831 26.7612 27.2249 27.2191C26.7668 27.6773 26.3317 27.9609 25.7206 28.1982C25.2597 28.3782 24.5664 28.5909 23.29 28.6493C21.91 28.712 21.4955 28.7256 18.0002 28.7256C14.5047 28.7256 14.0904 28.712 12.7104 28.6493C11.434 28.5904 10.7413 28.3771 10.2796 28.1979C9.66866 27.9606 9.23229 27.677 8.77411 27.2188C8.31593 26.7606 8.03229 26.3254 7.79448 25.7142C7.61529 25.2533 7.40175 24.5605 7.34366 23.2842C7.28093 21.9042 7.26838 21.4896 7.26838 17.9938C7.26838 14.498 7.28093 14.0856 7.34366 12.7056C7.40202 11.4293 7.61529 10.7365 7.79448 10.2751C8.03175 9.66418 8.31593 9.22782 8.77411 8.76963C9.23229 8.31145 9.66866 8.02782 10.2796 7.79C10.741 7.61 11.434 7.39727 12.7104 7.33863C13.918 7.28409 14.386 7.26773 16.8258 7.265V7.26827ZM24.988 9.44191C24.1207 9.44191 23.4171 10.1447 23.4171 11.0123C23.4171 11.8795 24.1207 12.5832 24.988 12.5832C25.8553 12.5832 26.5589 11.8795 26.5589 11.0123C26.5589 10.145 25.8553 9.44136 24.988 9.44136V9.44191ZM18.0002 11.2774C14.2876 11.2774 11.2775 14.2875 11.2775 18.0001C11.2775 21.7127 14.2876 24.7215 18.0002 24.7215C21.7128 24.7215 24.7218 21.7127 24.7218 18.0001C24.7218 14.2875 21.7128 11.2774 18.0002 11.2774ZM18.0002 13.6365C20.41 13.6365 22.3638 15.59 22.3638 18.0001C22.3638 20.4099 20.41 22.3637 18.0002 22.3637C15.5901 22.3637 13.6366 20.4099 13.6366 18.0001C13.6366 15.59 15.5901 13.6365 18.0002 13.6365Z" fill="white"/>
<defs>
<radialGradient id="paint0_radial_8969_4885" cx="0" cy="0" r="1" gradientUnits="userSpaceOnUse" gradientTransform="translate(9.69287 38.455) rotate(-90) scale(35.1351 32.6873)">
<stop stop-color="#FFDD55"/>
<stop offset="0.1" stop-color="#FFDD55"/>
<stop offset="0.5" stop-color="#FF543E"/>
<stop offset="1" stop-color="#C837AB"/>
</radialGradient>
<radialGradient id="paint1_radial_8969_4885" cx="0" cy="0" r="1" gradientUnits="userSpaceOnUse" gradientTransform="translate(-5.6665 2.82682) rotate(78.6776) scale(15.7057 64.7559)">
<stop stop-color="#3771C8"/>
<stop offset="0.128" stop-color="#3771C8"/>
<stop offset="1" stop-color="#6600FF" stop-opacity="0"/>
</radialGradient>
</defs>
</svg>
