<svg width="33" height="36" viewBox="0 0 33 36" fill="none" xmlns="http://www.w3.org/2000/svg">
<path d="M13.8977 14.3989V13.0272C13.3887 12.9598 12.876 12.925 12.3626 12.9229C6.08384 12.9229 0.974609 17.7044 0.974609 23.5816C0.974609 27.1862 2.90015 30.3782 5.83645 32.3075C3.8703 30.3395 2.77646 27.7456 2.7783 25.0512C2.7783 19.2579 7.74168 14.5336 13.8977 14.3989Z" fill="#00F2EA"/>
<path d="M14.2002 29.5385C16.8549 29.5385 19.0195 27.4403 19.1183 24.8243L19.1275 1.47785H23.4198C23.328 0.990575 23.2813 0.495857 23.2805 0L17.4189 0L17.4088 23.3474C17.3109 25.9615 15.1445 28.0597 12.4906 28.0597C11.6944 28.0597 10.9101 27.8665 10.2051 27.4966C10.662 28.1288 11.2623 28.6435 11.9568 28.9984C12.6514 29.3534 13.4202 29.5385 14.2002 29.5385ZM31.4358 9.40246V8.10461C29.8601 8.10637 28.3177 7.65071 26.9958 6.79292C28.156 8.1189 29.7129 9.03427 31.4358 9.40246Z" fill="#00F2EA"/>
<path d="M26.8202 7.12434C25.5312 5.6682 24.8194 3.79087 24.8189 1.84619H23.2525C23.4575 2.92217 23.8795 3.9451 24.4929 4.85257C25.1063 5.76004 25.8982 6.53302 26.8202 7.12434ZM12.3509 18.5216C9.63708 18.5253 7.43832 20.701 7.43555 23.3862C7.43838 24.2763 7.68554 25.1486 8.1501 25.908C8.61465 26.6673 9.27875 27.2845 10.07 27.6923C9.46623 26.8697 9.14031 25.8761 9.13955 24.8557C9.14232 22.1696 11.3411 19.993 14.0549 19.9902C14.5626 19.9902 15.0472 20.0733 15.506 20.2154V14.3077C15.0252 14.2401 14.5404 14.205 14.0549 14.2025C13.97 14.2025 13.886 14.208 13.802 14.209V18.7468C13.3324 18.599 12.8432 18.523 12.3509 18.5216Z" fill="#FF004F"/>
<path d="M30.6541 10.1538V14.6621C27.7383 14.6665 24.8939 13.7592 22.5191 12.0673V23.8523C22.5191 29.7387 17.6914 34.5276 11.7578 34.5276C9.464 34.5276 7.33723 33.8095 5.58984 32.592C6.5986 33.6689 7.81786 34.5271 9.17199 35.1133C10.5261 35.6996 11.9863 36.0013 13.4618 36C19.3963 36 24.224 31.211 24.224 25.3255V13.5397C26.599 15.2312 29.4433 16.1381 32.3591 16.1335V10.3338C31.786 10.3336 31.2146 10.2733 30.6541 10.1538Z" fill="#FF004F"/>
<path d="M23.1086 23.4647V11.6603C25.5526 13.3592 28.4593 14.2666 31.4357 14.2597V9.74588C29.6855 9.38365 28.0968 8.4716 26.9015 7.14281C24.9889 5.93634 23.6689 4.02281 23.2498 1.84619H18.868L18.8588 25.1216C18.7572 27.7283 16.5465 29.82 13.8372 29.82C12.2182 29.8182 10.7006 29.0613 9.75723 27.7856C8.10123 26.9428 7.06277 25.2785 7.06185 23.4637C7.06462 20.7683 9.31416 18.5853 12.0926 18.5816C12.6095 18.5816 13.1062 18.6647 13.5769 18.8077V14.2542C7.62216 14.3899 2.82031 19.128 2.82031 24.9379C2.82031 27.7487 3.94554 30.3065 5.77877 32.2163C7.64033 33.4831 9.84094 34.1584 12.0926 34.1539C18.1665 34.1539 23.1086 29.3585 23.1086 23.4647Z" fill="black"/>
</svg>
