<svg width="53" height="36" viewBox="0 0 53 36" fill="none" xmlns="http://www.w3.org/2000/svg">
<path d="M26.6556 4C26.6556 4 14.1539 4.00001 11.0162 4.81555C9.33613 5.2851 7.95274 6.66887 7.48331 8.37408C6.66799 11.5127 6.66797 18.0124 6.66797 18.0124C6.66797 18.0124 6.66799 24.5368 7.48331 27.6259C7.95274 29.3311 9.31143 30.6902 11.0162 31.1597C14.1786 32 26.6556 32 26.6556 32C26.6556 32 39.182 32 42.3197 31.1845C44.0244 30.7149 45.3831 29.3806 45.8278 27.6506C46.6679 24.5368 46.6679 18.0371 46.6679 18.0371C46.6679 18.0371 46.6926 11.5127 45.8278 8.37408C45.3831 6.66887 44.0244 5.30984 42.3197 4.865C39.182 4.00004 26.6556 4 26.6556 4ZM22.6777 12.0072L33.0794 18.0124L22.6777 23.9928V12.0072Z" fill="#FF0000"/>
</svg>
